<svg viewBox="0 0 100 100" fill="none" xmlns="http://www.w3.org/2000/svg">
  <!-- Outer Hexagon -->
  <path d="M50 5L89.3 27.5V72.5L50 95L10.7 72.5V27.5L50 5Z" stroke="#eebd8e" stroke-width="6" />
  
  <!-- Inner Geometric Structure -->
  <path d="M50 20L76 35V65L50 80L24 65V35L50 20Z" stroke="#00dce5" stroke-width="3" stroke-dasharray="6 6" />

  <!-- Organic "S" / Vine -->
  <path d="M35 70C35 70 45 75 60 60C75 45 70 30 70 30C70 30 65 25 50 40C35 55 40 70 40 70" stroke="#00dce5" stroke-width="5" stroke-linecap="round" />

  <!-- Central Pulse -->
  <circle cx="50" cy="50" r="6" fill="#eebd8e" />
  
  <!-- Digital Accents / Data Bits -->
  <g>
    <rect x="46" y="10" width="8" height="4" fill="#eebd8e" />
    <rect x="46" y="86" width="8" height="4" fill="#eebd8e" />
    <rect x="15" y="30" width="4" height="8" fill="#00dce5" />
    <rect x="81" y="62" width="4" height="8" fill="#00dce5" />
  </g>
</svg>
